<svg width="50" height="50" viewBox="0 0 50 50" fill="none" xmlns="http://www.w3.org/2000/svg">
<rect width="50" height="50" rx="8" fill="#E6F4FB"/>
<path fill-rule="evenodd" clip-rule="evenodd" d="M25 28.75C22.9321 28.75 21.25 27.0679 21.25 25C21.25 22.9322 22.9321 21.25 25 21.25C27.0679 21.25 28.75 22.9322 28.75 25C28.75 27.0679 27.0679 28.75 25 28.75ZM25 27.5C23.6224 27.5 22.5 26.3776 22.5 25C22.5 23.6225 23.6225 22.5 25 22.5C26.3775 22.5 27.5 23.6225 27.5 25C27.5 26.3776 26.3775 27.5 25 27.5Z" fill="#1FA2DE"/>
<path fill-rule="evenodd" clip-rule="evenodd" d="M23.8194 13.75C22.8451 13.75 22.051 14.5218 22.0152 15.4873L21.6512 17.3071L20.4207 16.1976C19.7146 15.505 18.5808 15.5092 17.8799 16.2101L16.2103 17.8797C15.5094 18.5806 15.5052 19.7143 16.1978 20.4204L17.3072 21.6512L15.4873 22.0152C14.5218 22.051 13.75 22.8451 13.75 23.8194V26.1806C13.75 27.1549 14.5218 27.949 15.4873 27.9848L17.3071 28.3488L16.1977 29.5792C15.5051 30.2853 15.5093 31.4191 16.2102 32.12L17.8798 33.7896C18.5807 34.4905 19.7145 34.4946 20.4205 33.8021L21.6512 32.6928L22.0152 34.5127C22.051 35.4782 22.8451 36.25 23.8194 36.25H26.1806C27.1549 36.25 27.949 35.4782 27.9848 34.5126L28.3488 32.6928L29.5795 33.8021C30.2855 34.4946 31.4193 34.4905 32.1202 33.7896L33.7898 32.12C34.4907 31.4191 34.4949 30.2853 33.8023 29.5792L32.6929 28.3488L34.5126 27.9848C35.4782 27.949 36.25 27.1549 36.25 26.1806V23.8194C36.25 22.8451 35.4782 22.051 34.5127 22.0152L32.6928 21.6512L33.8023 20.4204C34.4948 19.7143 34.4906 18.5806 33.7897 17.8797L32.1201 16.2101C31.4192 15.5092 30.2854 15.505 29.5793 16.1976L28.3488 17.3071L27.9848 15.4873C27.949 14.5218 27.1549 13.75 26.1806 13.75H23.8194ZM23.2639 15.5556C23.2639 15.2487 23.5126 15 23.8194 15H26.1806C26.4874 15 26.7361 15.2487 26.7361 15.5556V15.6174L27.1231 17.5522C27.3132 18.5027 28.4659 18.8845 29.1858 18.2354L30.4391 17.1054L30.4506 17.094C30.6675 16.877 31.0193 16.877 31.2362 17.094L32.9058 18.7635C33.1228 18.9805 33.1228 19.3323 32.9058 19.5492L32.8944 19.5607L31.7643 20.8142C31.1153 21.5342 31.4972 22.6868 32.4476 22.8769L34.3826 23.2639H34.4444C34.7513 23.2639 35 23.5126 35 23.8194V26.1806C35 26.4874 34.7513 26.7361 34.4444 26.7361H34.3826L32.4478 27.1231C31.4973 27.3132 31.1154 28.4659 31.7646 29.1858L32.8945 30.439L32.9059 30.4504C33.1229 30.6674 33.1229 31.0192 32.9059 31.2361L31.2363 32.9057C31.0194 33.1226 30.6676 33.1226 30.4507 32.9057L30.4392 32.8942L29.1858 31.7643C28.4658 31.1153 27.3132 31.4972 27.1231 32.4476L26.7361 34.3826V34.4444C26.7361 34.7513 26.4874 35 26.1806 35H23.8194C23.5126 35 23.2639 34.7513 23.2639 34.4444V34.3826L22.8769 32.4476C22.6868 31.4972 21.5342 31.1153 20.8142 31.7643L19.5608 32.8942L19.5493 32.9057C19.3324 33.1226 18.9806 33.1226 18.7637 32.9057L17.0941 31.2361C16.8771 31.0192 16.8771 30.6674 17.0941 30.4504L17.1055 30.439L18.2354 29.1858C18.8846 28.4659 18.5027 27.3132 17.5522 27.1231L15.6174 26.7361H15.5556C15.2487 26.7361 15 26.4874 15 26.1806V23.8194C15 23.5126 15.2487 23.2639 15.5556 23.2639H15.6174L17.5524 22.8769C18.5028 22.6868 18.8847 21.5342 18.2357 20.8142L17.1056 19.5607L17.0942 19.5492C16.8772 19.3323 16.8772 18.9805 17.0942 18.7635L18.7638 17.094C18.9807 16.877 19.3325 16.877 19.5494 17.094L19.5609 17.1054L20.8142 18.2354C21.5341 18.8845 22.6868 18.5027 22.8769 17.5522L23.2639 15.6174V15.5556Z" fill="#1FA2DE"/>
</svg>
