<svg width="15" height="15" viewBox="0 0 15 15" fill="none" xmlns="http://www.w3.org/2000/svg">
<path fill-rule="evenodd" clip-rule="evenodd" d="M6.61052 6.8172C6.65525 6.49303 6.80436 6.19237 7.03517 5.96097L11.9822 1.00128L13.0051 2.02683L8.05811 6.98652C7.82729 7.21793 7.5274 7.36742 7.20406 7.41226L6.51524 7.50778L6.61052 6.8172ZM6.32897 5.25296C5.94428 5.63863 5.69576 6.13973 5.62122 6.68001L5.43556 8.02572L5.34517 8.68085L5.99863 8.59023L7.3409 8.4041C7.87981 8.32936 8.37962 8.08021 8.76431 7.69453L13.7113 2.73484C14.1013 2.34382 14.1013 1.70985 13.7113 1.31882L12.6884 0.293268C12.2984 -0.0977561 11.666 -0.0977556 11.276 0.293268L6.32897 5.25296ZM1.5022 2.7041C0.673768 2.7041 0.00219727 3.37567 0.00219727 4.2041V12.5036C0.00219727 13.332 0.67377 14.0036 1.5022 14.0036H9.77538C10.6038 14.0036 11.2754 13.332 11.2754 12.5036V8.19935H10.2754V12.5036C10.2754 12.7797 10.0515 13.0036 9.77538 13.0036H1.5022C1.22605 13.0036 1.0022 12.7797 1.0022 12.5036V4.2041C1.0022 3.92795 1.22605 3.7041 1.5022 3.7041H5.79289V2.7041H1.5022Z" fill="#1FA2DE"/>
</svg>
